<svg width="190" height="36" viewBox="0 0 190 36" fill="none" xmlns="http://www.w3.org/2000/svg">
<path d="M22.8086 7.7998H14.7227V35H8.09668V7.7998H0.145508V2.29688H22.8086V7.7998ZM36.8018 16.8291L34.6904 16.6494C32.9535 16.6494 31.778 17.4131 31.1641 18.9404V35H24.7852V10.6973H30.7822L30.9619 13.3252C31.9652 11.2738 33.3503 10.248 35.1172 10.248C35.8359 10.248 36.4199 10.3454 36.8691 10.54L36.8018 16.8291ZM50.9521 35C50.7725 34.6257 50.5928 33.9967 50.4131 33.1133C49.2751 34.6706 47.7327 35.4492 45.7861 35.4492C43.7497 35.4492 42.0576 34.7754 40.71 33.4277C39.3773 32.0801 38.7109 30.3356 38.7109 28.1943C38.7109 25.6488 39.5195 23.6797 41.1367 22.2871C42.7689 20.8945 45.1123 20.1833 48.167 20.1533H50.0986V18.1992C50.0986 17.1061 49.9115 16.335 49.5371 15.8857C49.1628 15.4365 48.6162 15.2119 47.8975 15.2119C46.3102 15.2119 45.5166 16.1403 45.5166 17.9971H39.1602C39.1602 15.751 39.9987 13.9017 41.6758 12.4492C43.3678 10.9818 45.5016 10.248 48.0771 10.248C50.7425 10.248 52.8014 10.9443 54.2539 12.3369C55.7214 13.7145 56.4551 15.6911 56.4551 18.2666V29.6992C56.485 31.7956 56.7845 33.4352 57.3535 34.6182V35H50.9521ZM47.2012 30.4629C47.9049 30.4629 48.5039 30.3206 48.998 30.0361C49.4922 29.7516 49.859 29.4147 50.0986 29.0254V23.9717H48.5713C47.4932 23.9717 46.6396 24.3161 46.0107 25.0049C45.3968 25.6937 45.0898 26.6146 45.0898 27.7676C45.0898 29.5645 45.7936 30.4629 47.2012 30.4629ZM68.6738 26.0156L71.751 10.6973H78.377L71.7061 35H65.6416L58.9482 10.6973H65.5967L68.6738 26.0156ZM90.8652 35.4492C87.6009 35.4492 85.0553 34.4759 83.2285 32.5293C81.4017 30.5827 80.4883 27.7975 80.4883 24.1738V22.2422C80.4883 18.4089 81.3268 15.4515 83.0039 13.3701C84.681 11.2887 87.0843 10.248 90.2139 10.248C93.2686 10.248 95.5671 11.2288 97.1094 13.1904C98.6517 15.137 99.4378 18.027 99.4678 21.8604V24.9824H86.8223C86.9121 26.7793 87.3089 28.097 88.0127 28.9355C88.7165 29.7591 89.8021 30.1709 91.2695 30.1709C93.3958 30.1709 95.1702 29.4447 96.5928 27.9922L99.0859 31.833C98.3073 32.9111 97.1768 33.7871 95.6943 34.4609C94.2119 35.1198 92.6022 35.4492 90.8652 35.4492ZM86.8672 20.5352H93.2236V19.9512C93.1937 18.4987 92.9541 17.3981 92.5049 16.6494C92.0557 15.9007 91.277 15.5264 90.1689 15.5264C89.0609 15.5264 88.2523 15.9232 87.7432 16.7168C87.249 17.5104 86.957 18.7832 86.8672 20.5352ZM109.732 35H103.354V0.5H109.732V35ZM121.322 35H114.943V10.6973H121.322V35ZM114.651 4.4082C114.651 3.41992 114.966 2.61133 115.595 1.98242C116.224 1.35352 117.062 1.03906 118.11 1.03906C119.159 1.03906 119.997 1.35352 120.626 1.98242C121.255 2.61133 121.569 3.41992 121.569 4.4082C121.569 5.38151 121.255 6.1901 120.626 6.83398C120.012 7.47786 119.174 7.7998 118.11 7.7998C117.047 7.7998 116.201 7.47786 115.572 6.83398C114.958 6.1901 114.651 5.38151 114.651 4.4082ZM137 28.4863C137 27.9473 136.738 27.4531 136.214 27.0039C135.705 26.5397 134.559 25.9183 132.777 25.1396C130.157 24.0765 128.353 22.9759 127.364 21.8379C126.391 20.6999 125.904 19.2848 125.904 17.5928C125.904 15.4665 126.668 13.7145 128.195 12.3369C129.738 10.9443 131.774 10.248 134.305 10.248C136.97 10.248 139.104 10.9368 140.706 12.3145C142.308 13.6921 143.109 15.5413 143.109 17.8623H136.753C136.753 15.8857 135.929 14.8975 134.282 14.8975C133.608 14.8975 133.054 15.1071 132.62 15.5264C132.186 15.9456 131.969 16.5296 131.969 17.2783C131.969 17.8174 132.208 18.2965 132.688 18.7158C133.167 19.1201 134.297 19.7041 136.079 20.4678C138.67 21.4261 140.496 22.4967 141.56 23.6797C142.638 24.8477 143.177 26.3675 143.177 28.2393C143.177 30.4105 142.361 32.1549 140.729 33.4727C139.096 34.7904 136.955 35.4492 134.305 35.4492C132.523 35.4492 130.951 35.1048 129.588 34.416C128.225 33.7122 127.155 32.7389 126.376 31.4961C125.612 30.2533 125.23 28.9131 125.23 27.4756H131.272C131.302 28.5837 131.557 29.4147 132.036 29.9688C132.53 30.5228 133.331 30.7998 134.439 30.7998C136.146 30.7998 137 30.0286 137 28.4863ZM153.104 10.6973L153.284 12.9434C154.707 11.1465 156.586 10.248 158.922 10.248C161.348 10.248 163.062 11.3411 164.065 13.5273C165.458 11.3411 167.442 10.248 170.018 10.248C174.27 10.248 176.449 13.1904 176.554 19.0752V35H170.197V19.4795C170.197 18.0719 170.003 17.0687 169.613 16.4697C169.224 15.8708 168.565 15.5713 167.637 15.5713C166.454 15.5713 165.57 16.2975 164.986 17.75L165.031 18.5137V35H158.675V19.5244C158.675 18.1318 158.488 17.1286 158.113 16.5146C157.739 15.8857 157.073 15.5713 156.114 15.5713C155.021 15.5713 154.153 16.1628 153.509 17.3457V35H147.152V10.6973H153.104Z" fill="white"/>
<path d="M181.787 31.7656C181.787 30.7474 182.124 29.9089 182.798 29.25C183.487 28.5911 184.378 28.2617 185.471 28.2617C186.534 28.2617 187.417 28.5911 188.121 29.25C188.825 29.8939 189.177 30.7324 189.177 31.7656C189.177 32.8138 188.817 33.6598 188.099 34.3037C187.395 34.9326 186.519 35.2471 185.471 35.2471C184.408 35.2471 183.524 34.9251 182.82 34.2812C182.132 33.6374 181.787 32.7988 181.787 31.7656Z" fill="#C90100"/>
</svg>
